<?xml version="1.0" standalone="no"?>
<!DOCTYPE svg PUBLIC "-//W3C//DTD SVG 20010904//EN"
 "http://www.w3.org/TR/2001/REC-SVG-20010904/DTD/svg10.dtd">
<svg version="1.0" xmlns="http://www.w3.org/2000/svg"
 width="1920.000000pt" height="1920.000000pt" viewBox="0 0 1920.000000 1920.000000"
 preserveAspectRatio="xMidYMid meet">
<metadata>
Created by potrace 1.14, written by Peter Selinger 2001-2017
</metadata>
<g transform="translate(0.000000,1920.000000) scale(0.100000,-0.100000)"
fill="#000000" stroke="none">
<path d="M9958 17305 c-2 -1 -37 -6 -78 -9 -80 -8 -133 -14 -165 -21 -11 -2
-47 -7 -80 -11 -33 -3 -63 -8 -68 -11 -4 -2 -20 -6 -35 -9 -33 -5 -385 -120
-427 -139 -16 -8 -70 -30 -119 -50 -49 -20 -96 -41 -105 -45 -9 -5 -42 -18
-75 -30 -58 -20 -71 -19 -96 11 -3 3 -69 56 -148 117 -134 105 -182 139 -182
128 0 -2 -21 2 -46 10 -34 10 -57 11 -90 4 -24 -6 -61 -13 -82 -16 -20 -3 -68
-12 -107 -21 -38 -8 -81 -17 -95 -19 -47 -9 -105 -52 -170 -125 -36 -40 -75
-82 -88 -93 -63 -56 -100 -149 -107 -271 -13 -199 -13 -261 0 -292 8 -18 12
-33 9 -33 -2 0 2 -12 10 -28 23 -44 64 -85 275 -268 18 -16 45 -41 60 -55 15
-14 48 -40 74 -58 26 -17 47 -33 47 -35 0 -4 -131 -258 -204 -396 -124 -235
-132 -255 -245 -570 -23 -63 -46 -124 -51 -135 -39 -84 -133 -413 -174 -608
-4 -17 -47 -193 -71 -287 -7 -29 -26 -105 -30 -125 -3 -11 -8 -33 -11 -49 -2
-16 -7 -32 -9 -36 -5 -8 -14 -114 -30 -340 -3 -52 -8 -116 -10 -141 -3 -25 -7
-79 -10 -120 -3 -40 -14 -110 -24 -154 -11 -44 -23 -102 -26 -130 -3 -27 -8
-61 -10 -75 -2 -14 -6 -45 -9 -70 -3 -25 -8 -54 -10 -65 -6 -33 -20 -159 -18
-167 1 -4 -19 -7 -46 -7 -50 2 -78 -3 -145 -25 -23 -8 -76 -24 -117 -37 -88
-26 -117 -48 -274 -205 -103 -103 -122 -127 -159 -205 -38 -81 -44 -88 -77
-95 -19 -4 -38 -8 -42 -9 -5 -2 -12 -3 -17 -4 -27 -3 -211 -217 -259 -301 -16
-28 -47 -141 -66 -243 -8 -41 -28 -135 -32 -149 -5 -15 -9 -16 -47 -2 -23 8
-51 21 -62 28 -11 7 -38 20 -60 28 -22 9 -69 29 -105 46 -36 16 -103 44 -150
62 -47 18 -107 43 -135 55 -27 12 -79 33 -115 46 -36 13 -67 27 -68 31 -2 4
-9 8 -16 8 -7 0 -55 17 -107 39 -88 35 -164 58 -221 66 -12 2 -45 6 -73 9 -27
4 -75 11 -105 17 -30 6 -64 12 -75 14 -24 5 -61 13 -95 21 -14 3 -43 10 -65
15 -22 5 -53 12 -68 14 -16 3 -34 8 -40 12 -7 4 -69 8 -138 9 l-127 1 -68 39
c-38 21 -77 43 -86 49 -232 137 -227 134 -384 170 -10 2 -80 20 -154 39 -74
19 -158 37 -185 41 -28 4 -59 9 -70 12 -11 2 -42 6 -70 9 -27 3 -61 7 -75 10
-14 2 -47 7 -75 10 -27 2 -55 6 -62 9 -6 2 -28 -1 -49 -6 -20 -6 -44 -12 -53
-14 -24 -5 -195 -72 -230 -90 -45 -23 -73 -57 -155 -190 -99 -161 -104 -184
-66 -339 31 -130 57 -175 123 -209 33 -17 42 -37 16 -37 -17 0 -79 -53 -99
-85 -15 -25 -41 -134 -126 -530 -8 -37 -13 -90 -19 -199 -9 -163 -1 -185 119
-346 152 -202 143 -193 281 -305 55 -44 115 -94 134 -111 l35 -31 -146 -147
c-80 -81 -154 -163 -164 -184 -11 -20 -21 -39 -24 -42 -3 -3 -11 -16 -19 -30
-17 -30 -171 -295 -192 -330 -8 -13 -30 -42 -51 -65 -116 -128 -129 -150 -154
-255 -13 -55 -26 -112 -28 -126 -14 -78 -70 -215 -107 -264 -23 -30 -44 -57
-48 -60 -23 -16 -69 -102 -78 -145 -9 -51 -9 -444 1 -545 2 -30 8 -98 11 -150
7 -111 13 -166 20 -198 3 -12 7 -31 10 -43 2 -11 31 -64 64 -117 33 -54 64
-116 69 -140 11 -46 49 -103 87 -128 14 -9 38 -37 54 -62 43 -68 64 -90 186
-190 61 -50 119 -103 130 -118 104 -144 206 -218 335 -239 36 -6 167 -61 343
-144 91 -42 121 -54 177 -68 26 -6 101 -12 220 -18 63 -3 149 -8 190 -10 41
-3 116 -7 165 -10 50 -3 128 -8 175 -11 104 -8 145 -8 190 1 40 7 191 75 202
90 4 5 8 7 8 2 0 -4 15 0 33 10 17 9 34 17 37 18 3 0 10 3 15 7 6 3 46 21 90
38 44 17 94 37 110 45 17 7 41 19 55 24 14 6 40 20 58 31 17 11 32 16 32 12 0
-19 -276 -854 -300 -907 -5 -11 -13 -36 -19 -55 -5 -19 -23 -73 -41 -120 -17
-47 -42 -116 -54 -155 -13 -38 -51 -149 -84 -245 -33 -96 -73 -229 -88 -295
-14 -66 -37 -167 -50 -225 -13 -58 -31 -136 -40 -175 -17 -78 -16 -74 -39
-170 -9 -38 -19 -79 -21 -90 -2 -11 -6 -31 -9 -45 -3 -14 -7 -34 -9 -45 -3
-11 -12 -49 -21 -85 -9 -36 -18 -75 -20 -87 -3 -13 -8 -35 -11 -50 -11 -50
-33 -167 -39 -208 -3 -22 -8 -47 -10 -55 -2 -8 -7 -31 -10 -50 -6 -36 -42
-244 -51 -290 -2 -14 -7 -41 -9 -60 -3 -19 -8 -44 -10 -56 -3 -12 -7 -39 -11
-60 -3 -21 -7 -43 -8 -49 -7 -30 -30 -171 -30 -180 1 -67 34 -206 57 -237 29
-39 86 -76 127 -83 19 -3 42 -8 50 -10 8 -2 40 -7 70 -10 30 -3 75 -7 100 -10
25 -3 70 -7 100 -10 30 -3 71 -7 90 -9 217 -27 376 -27 1225 -1 55 2 206 6
335 9 129 3 318 8 420 11 102 3 288 7 415 10 411 10 597 15 800 20 110 3 297
7 415 10 118 3 305 8 415 10 110 3 290 7 400 11 282 8 303 7 710 -11 55 -3
161 -7 235 -10 245 -9 374 -15 480 -20 58 -3 164 -7 235 -10 72 -2 191 -7 265
-11 181 -9 522 -9 755 -1 105 4 249 9 320 12 309 12 398 15 540 20 83 3 202 7
265 10 63 2 198 7 300 10 102 3 230 8 285 10 456 20 637 22 1180 14 243 -4
251 -3 296 19 98 48 133 133 124 301 -3 52 -7 149 -10 215 -17 423 -20 474
-28 501 -3 11 -8 38 -12 60 -3 22 -14 77 -25 123 -11 46 -20 86 -20 88 0 2 17
-6 38 -19 20 -13 53 -31 72 -41 19 -9 58 -30 85 -47 28 -16 66 -37 85 -47 19
-9 37 -20 38 -24 2 -5 7 -8 12 -8 5 0 35 -15 67 -34 117 -69 316 -98 448 -66
38 9 163 38 195 45 8 1 38 6 65 9 28 4 57 9 65 11 48 14 283 52 360 59 82 8
138 15 170 21 14 3 36 7 49 10 34 6 112 63 207 150 6 6 30 26 54 45 147 118
277 231 290 252 95 153 170 280 170 287 0 5 7 14 15 21 19 16 65 98 65 117 0
8 12 45 26 81 27 68 32 81 77 187 13 33 28 78 32 100 5 22 10 47 11 55 2 8 6
87 9 175 2 88 7 171 9 185 3 14 8 61 11 105 3 44 8 98 10 120 3 22 7 74 10
115 3 41 7 102 10 135 3 33 7 87 10 120 2 33 7 89 10 125 8 89 13 175 20 305
3 61 7 133 10 160 9 120 19 318 19 415 1 92 -3 152 -19 315 -2 22 -7 69 -10
105 -4 36 -8 83 -10 105 -2 22 -7 72 -10 110 -7 86 -13 124 -32 195 -8 30 -16
66 -19 80 -3 14 -16 68 -29 120 -27 106 -27 181 -1 436 3 33 8 88 11 124 3 36
7 92 10 125 4 33 8 83 10 110 2 28 7 86 11 130 12 129 8 333 -11 675 -2 25 -4
75 -6 113 -3 95 -19 155 -79 292 -21 47 -121 305 -125 320 -6 27 -68 140 -85
155 -3 3 -28 38 -55 79 -71 106 -146 181 -300 298 -97 73 -123 87 -198 104
-32 7 -60 15 -62 19 -3 4 0 22 5 39 5 18 12 103 15 189 l6 156 48 91 c53 98
78 184 61 215 -5 10 -10 28 -10 39 0 11 -11 45 -25 75 -14 30 -25 57 -25 61 0
3 -5 11 -10 18 -6 7 -18 21 -28 33 -18 22 -68 57 -86 60 -12 2 -154 34 -288
65 -78 18 -114 20 -315 16 -126 -2 -245 -8 -265 -14 -40 -12 -58 -24 -156
-111 -99 -87 -108 -98 -183 -223 -65 -109 -71 -126 -104 -265 -38 -158 -45
-189 -46 -201 -1 -5 -7 -26 -14 -49 -6 -22 -8 -49 -4 -60 4 -12 9 -34 10 -50
2 -16 7 -34 11 -40 6 -8 0 -13 -14 -17 -66 -15 -317 -110 -348 -132 -84 -58
-193 -344 -162 -425 8 -22 3 -33 -36 -85 -25 -33 -48 -63 -51 -67 -3 -4 -5 49
-5 118 2 129 -4 165 -53 319 -14 44 -26 85 -27 90 -2 6 -6 17 -9 25 -3 8 -12
37 -21 64 -24 75 -240 392 -292 429 -36 26 -92 53 -250 122 -81 35 -89 42 -89
77 1 32 10 111 19 154 2 12 7 45 11 75 4 30 8 56 10 59 2 3 6 26 10 50 8 59
40 184 72 290 15 47 28 90 29 95 1 6 26 78 54 160 29 83 53 155 54 160 12 49
28 104 36 120 5 11 11 29 14 40 7 30 54 187 86 290 67 213 73 237 166 640 14
61 27 117 29 125 41 178 53 243 50 271 -3 19 -7 57 -10 84 -3 28 -8 66 -10 85
-3 19 -7 53 -10 75 -25 210 -38 292 -56 360 -11 44 -24 96 -29 115 -5 19 -14
53 -20 75 -6 22 -13 48 -15 58 -2 10 -7 27 -10 37 -3 10 -8 27 -10 37 -7 31
-92 331 -135 478 -23 77 -45 154 -50 170 -4 17 -13 42 -19 58 -6 15 -9 27 -7
27 3 0 -6 19 -19 43 -12 24 -57 111 -100 193 -43 82 -103 191 -133 243 -32 55
-51 96 -44 99 62 20 251 192 285 259 13 25 47 182 61 285 4 25 -5 78 -25 155
-17 65 -34 129 -37 142 -6 28 -24 52 -69 96 -42 39 -221 130 -298 149 -58 15
-63 14 -225 -20 -133 -28 -176 -42 -222 -70 -31 -19 -63 -34 -72 -34 -9 0 -63
31 -119 68 -110 73 -144 93 -282 167 -49 27 -129 70 -178 96 -85 46 -143 65
-220 73 -21 3 -55 7 -75 10 -20 3 -56 8 -79 11 -24 3 -62 7 -85 10 -43 5 -75
10 -153 20 -23 3 -52 7 -65 10 -61 12 -213 17 -580 21 -217 2 -421 5 -452 8
-80 7 -185 16 -238 22 -88 9 -136 14 -191 18 -31 3 -69 7 -85 10 -64 10 -339
27 -346 21z"/>
</g>
</svg>
